{
	"asset":{
		"generator":"Khronos glTF Blender I/O v4.0.44",
		"version":"2.0"
	},
	"extensionsUsed":[
		"KHR_materials_specular",
		"KHR_materials_ior"
	],
	"scene":0,
	"scenes":[
		{
			"name":"Scene",
			"nodes":[
				0
			]
		}
	],
	"nodes":[
		{
			"mesh":0,
			"name":"atlantic blue tang fish"
		}
	],
	"materials":[
		{
			"doubleSided":true,
			"extensions":{
				"KHR_materials_specular":{
					"specularFactor":0.1818181872367859
				},
				"KHR_materials_ior":{
					"ior":1.4500000476837158
				}
			},
			"name":"atlantic blue tang fish.001",
			"normalTexture":{
				"index":0,
				"scale":4.199999809265137
			},
			"pbrMetallicRoughness":{
				"baseColorTexture":{
					"index":1
				},
				"metallicFactor":0,
				"roughnessFactor":0.11818182468414307
			}
		}
	],
	"meshes":[
		{
			"name":"Cube.001",
			"primitives":[
				{
					"attributes":{
						"POSITION":0,
						"NORMAL":1,
						"TEXCOORD_0":2
					},
					"indices":3,
					"material":0
				}
			]
		}
	],
	"textures":[
		{
			"sampler":0,
			"source":0
		},
		{
			"sampler":0,
			"source":1
		}
	],
	"images":[
		{
			"mimeType":"image/png",
			"name":"D:\\textures\\UVS\\NRM_10",
			"uri":"DtexturesUVSNRM_10.png"
		},
		{
			"mimeType":"image/png",
			"name":"D:\\textures\\UVS\\UV_10",
			"uri":"DtexturesUVSUV_10.png"
		}
	],
	"accessors":[
		{
			"bufferView":0,
			"componentType":5126,
			"count":796,
			"max":[
				0.43419304490089417,
				0.4319014549255371,
				0.55390465259552
			],
			"min":[
				-0.4027462899684906,
				-0.6530349254608154,
				-0.15431714057922363
			],
			"type":"VEC3"
		},
		{
			"bufferView":1,
			"componentType":5126,
			"count":796,
			"type":"VEC3"
		},
		{
			"bufferView":2,
			"componentType":5126,
			"count":796,
			"type":"VEC2"
		},
		{
			"bufferView":3,
			"componentType":5123,
			"count":4176,
			"type":"SCALAR"
		}
	],
	"bufferViews":[
		{
			"buffer":0,
			"byteLength":9552,
			"byteOffset":0,
			"target":34962
		},
		{
			"buffer":0,
			"byteLength":9552,
			"byteOffset":9552,
			"target":34962
		},
		{
			"buffer":0,
			"byteLength":6368,
			"byteOffset":19104,
			"target":34962
		},
		{
			"buffer":0,
			"byteLength":8352,
			"byteOffset":25472,
			"target":34963
		}
	],
	"samplers":[
		{
			"magFilter":9729,
			"minFilter":9987
		}
	],
	"buffers":[
		{
			"byteLength":33824,
			"uri":"bluefish.bin"
		}
	]
}
