# Blender 4.2.3 LTS
# www.blender.org
o ds_funnel_x_4
v 0.541738 -0.107258 -1.318583
v 0.576710 -0.106936 -1.318583
v 0.576710 -0.165226 -1.318583
v 0.576710 -0.023146 -1.383218
v 0.576710 -0.026332 -1.401185
v 0.576710 -0.030246 -1.412688
v 0.541739 -0.023146 -1.383218
v 0.541739 -0.026332 -1.401185
v 0.541739 -0.030246 -1.412688
v 0.541738 -0.164675 -1.318583
v 0.576710 -0.165226 -1.318583
v 0.576710 -0.165226 -1.318583
v 0.576710 -0.106936 -1.318583
v 0.576710 -0.106936 -1.318583
v 0.576710 -0.023146 -1.383218
v 0.576710 -0.023146 -1.383218
v 0.541739 -0.023146 -1.383218
v 0.541739 -0.023146 -1.383218
v 0.541739 -0.026332 -1.401185
v 0.541739 -0.030246 -1.412688
v 0.541739 -0.030246 -1.412688
v 0.576710 -0.026332 -1.401185
v 0.576710 -0.030246 -1.412688
v 0.576710 -0.030246 -1.412688
v 0.541738 -0.164675 -1.318583
v 0.541738 -0.164675 -1.318583
v 0.541738 -0.107258 -1.318583
v 0.541738 -0.107258 -1.318583
vn -0.0000 0.9846 -0.1746
vn 1.0000 -0.0000 -0.0000
vn -1.0000 -0.0000 -0.0000
vn -0.0056 0.6093 0.7929
vn -0.0000 -0.0000 1.0000
vn -0.0090 -0.5719 -0.8203
vn -0.0000 0.9467 -0.3221
vn -0.0000 0.6108 0.7918
vn -0.0000 -0.5735 -0.8192
s 0
f 8//1 15//1 22//1
f 23//2 16//2 13//2
f 20//3 27//3 18//3
f 14//4 7//4 28//4
f 26//5 2//5 1//5
f 10//6 24//6 3//6
f 22//7 9//7 8//7
f 8//1 17//1 15//1
f 13//2 11//2 23//2
f 23//2 5//2 16//2
f 18//3 19//3 20//3
f 20//3 25//3 27//3
f 14//8 4//8 7//8
f 26//5 12//5 2//5
f 10//9 21//9 24//9
f 22//7 6//7 9//7
