# Blender 4.2.3 LTS
# www.blender.org
o DS_funnel_y0_4_vis
v 0.539219 -0.111345 -1.259477
v 0.539219 -0.146374 -1.259477
v 0.537658 -0.111345 -1.019477
v 0.537658 -0.146374 -1.019477
v 0.540528 -0.146374 -1.383891
v 0.540528 -0.111345 -1.383891
v 0.214732 -0.146374 -1.019477
v 0.214732 -0.111345 -1.019477
v 0.243420 -0.111345 -1.087694
v 0.243420 -0.146374 -1.087694
v 0.277385 -0.111345 -1.153444
v 0.277385 -0.146374 -1.153444
v 0.316418 -0.111345 -1.216318
v 0.316418 -0.146374 -1.216318
v 0.371413 -0.111345 -1.275926
v 0.371413 -0.146374 -1.275926
v 0.436076 -0.111345 -1.331900
v 0.436076 -0.146374 -1.331900
vn -0.9218 -0.0000 -0.3877
vn -0.8885 -0.0000 -0.4590
vn -0.8496 -0.0000 -0.5274
vn -0.7350 -0.0000 -0.6781
vn -0.6545 -0.0000 -0.7561
vn -0.4456 -0.0000 -0.8952
vn -0.0000 1.0000 -0.0000
vn -0.0000 -1.0000 -0.0000
vn 1.0000 -0.0000 0.0065
vn 0.9999 -0.0000 0.0105
vn -0.0000 -0.0000 1.0000
s 0
f 7//1 8//1 9//1
f 7//1 9//1 10//1
f 10//2 9//2 11//2
f 10//2 11//2 12//2
f 12//3 11//3 13//3
f 12//3 13//3 14//3
f 14//4 13//4 15//4
f 14//4 15//4 16//4
f 16//5 15//5 17//5
f 16//5 17//5 18//5
f 18//6 17//6 6//6
f 18//6 6//6 5//6
f 1//7 6//7 17//7
f 17//7 15//7 1//7
f 1//7 15//7 13//7
f 1//7 13//7 11//7
f 8//7 1//7 9//7
f 9//7 1//7 11//7
f 7//8 10//8 2//8
f 2//8 10//8 12//8
f 2//8 12//8 14//8
f 14//8 16//8 2//8
f 2//8 16//8 18//8
f 2//8 18//8 5//8
f 1//9 4//9 2//9
f 6//10 2//10 5//10
f 8//11 4//11 3//11
f 6//10 1//10 2//10
f 3//7 1//7 8//7
f 4//8 7//8 2//8
f 1//9 3//9 4//9
f 8//11 7//11 4//11
