# Blender 4.2.3 LTS
# www.blender.org
o DS_funnel_y_5_vis
v 0.060217 -0.146374 -0.519477
v 0.086063 -0.146374 -0.662456
v 0.189586 -0.146374 -0.519477
v 0.053545 -0.146374 -0.646625
v 0.060217 -0.111345 -0.519477
v 0.180217 -0.111345 -0.519477
v 0.086063 -0.111345 -0.662456
v 0.053545 -0.111345 -0.646625
v 0.060217 -0.146374 -0.519477
v 0.060217 -0.146374 -0.519477
v 0.053545 -0.146374 -0.646625
v 0.053545 -0.146374 -0.646625
v 0.086063 -0.146374 -0.662456
v 0.086063 -0.146374 -0.662456
v 0.189586 -0.146374 -0.519477
v 0.189586 -0.146374 -0.519477
v 0.086063 -0.111345 -0.662456
v 0.086063 -0.111345 -0.662456
v 0.060217 -0.111345 -0.519477
v 0.060217 -0.111345 -0.519477
v 0.053545 -0.111345 -0.646625
v 0.053545 -0.111345 -0.646625
v 0.180217 -0.111345 -0.519477
v 0.180217 -0.111345 -0.519477
vn -0.0000 -1.0000 -0.0000
vn -0.0000 1.0000 -0.0000
vn -0.4377 -0.0000 -0.8991
vn -0.9986 -0.0000 0.0524
vn -0.0000 -0.0000 1.0000
vn 0.7987 0.1873 -0.5718
vn 0.8317 0.0278 -0.5545
vn 0.8352 -0.0000 -0.5500
vn 0.7916 0.2117 -0.5732
s 1
f 9//1 13//1 15//1
f 19//2 18//2 21//2
f 22//3 14//3 12//3
f 20//4 4//4 10//4
f 1//5 24//5 5//5
f 6//6 2//7 7//8
f 9//1 11//1 13//1
f 19//2 23//2 18//2
f 22//3 17//3 14//3
f 20//4 8//4 4//4
f 1//5 16//5 24//5
f 6//6 3//9 2//7
