# Blender 4.2.3 LTS
# www.blender.org
o DS_funnel_y_7_vis
v 0.018301 -0.146374 -0.638502
v 0.018301 -0.111345 -0.638502
v 0.300217 -0.111345 -0.519477
v -0.000000 -0.146374 -0.519477
v -0.000000 -0.111345 -0.519477
v 0.029298 -0.111345 -0.519477
v 0.025033 -0.146374 -0.519477
v 0.300217 -0.111345 -0.519477
v -0.000000 -0.146374 -0.638502
v -0.000000 -0.111345 -0.638502
v 0.018301 -0.111345 -0.638502
v 0.018301 -0.111345 -0.638502
v -0.000000 -0.111345 -0.638502
v -0.000000 -0.111345 -0.638502
v -0.000000 -0.146374 -0.638502
v -0.000000 -0.146374 -0.638502
v 0.018301 -0.146374 -0.638502
v 0.018301 -0.146374 -0.638502
v 0.025033 -0.146374 -0.519477
v 0.025033 -0.146374 -0.519477
v -0.000000 -0.146374 -0.519477
v -0.000000 -0.146374 -0.519477
v 0.029298 -0.111345 -0.519477
v 0.029298 -0.111345 -0.519477
v -0.000000 -0.111345 -0.519477
v -0.000000 -0.111345 -0.519477
vn -0.0000 -0.0000 -1.0000
vn -1.0000 -0.0000 -0.0000
vn -0.0000 -1.0000 -0.0000
vn -0.0000 1.0000 -0.0000
vn -0.0000 -0.0000 1.0000
vn 0.9915 -0.0987 -0.0851
vn 0.9978 -0.0221 -0.0629
vn 0.9885 -0.1204 -0.0913
vn 0.9984 -0.0000 -0.0565
s 1
f 17//1 13//1 11//1
f 26//2 16//2 22//2
f 18//3 21//3 9//3
f 25//4 12//4 10//4
f 5//5 20//5 24//5
f 7//6 2//7 6//8
f 17//1 15//1 13//1
f 26//2 14//2 16//2
f 18//3 19//3 21//3
f 25//4 23//4 12//4
f 5//5 4//5 20//5
f 7//6 1//9 2//7
l 3 8
