# Blender 4.2.3 LTS
# www.blender.org
o DS_funnel_y_4_vis
v 0.114196 -0.146374 -0.685187
v 0.300217 -0.146374 -0.519477
v 0.086063 -0.146374 -0.662456
v 0.189586 -0.146374 -0.519477
v 0.114196 -0.111345 -0.685187
v 0.180217 -0.111345 -0.519477
v 0.086063 -0.111345 -0.662456
v 0.300217 -0.111345 -0.519477
v 0.300217 -0.111345 -0.519477
v 0.086063 -0.146374 -0.662456
v 0.086063 -0.146374 -0.662456
v 0.189586 -0.146374 -0.519477
v 0.189586 -0.146374 -0.519477
v 0.086063 -0.111345 -0.662456
v 0.086063 -0.111345 -0.662456
v 0.114196 -0.111345 -0.685187
v 0.114196 -0.111345 -0.685187
v 0.180217 -0.111345 -0.519477
v 0.180217 -0.111345 -0.519477
v 0.114196 -0.146374 -0.685187
v 0.114196 -0.146374 -0.685187
v 0.300217 -0.146374 -0.519477
v 0.300217 -0.146374 -0.519477
v 0.300217 -0.111345 -0.519477
v 0.300217 -0.111345 -0.519477
vn -0.0000 -1.0000 -0.0000
vn -0.0000 1.0000 -0.0000
vn -0.0000 0.4204 0.9074
vn -0.6285 -0.0000 -0.7778
vn -0.7987 -0.1873 0.5718
vn -0.8317 -0.0278 0.5545
vn -0.7916 -0.2117 0.5732
vn -0.0000 -0.0000 1.0000
vn 0.6652 -0.0000 -0.7467
vn -0.8352 -0.0000 0.5500
s 1
f 12//1 20//1 22//1
f 18//2 24//3 15//2
f 11//4 17//4 21//4
f 19//5 3//6 13//7
f 4//8 8//8 6//8
f 9//9 1//9 5//9
f 12//1 10//1 20//1
f 18//2 25//8 24//3
f 24//3 16//2 15//2
f 11//4 14//4 17//4
f 19//5 7//10 3//6
f 4//8 23//8 8//8
f 9//9 2//9 1//9
