# Blender 4.2.3 LTS
# www.blender.org
o DS_funnel_y_3_vis
v 0.136504 -0.146374 -0.713655
v 0.114196 -0.146374 -0.685187
v 0.300217 -0.146374 -0.519477
v 0.136504 -0.111345 -0.713655
v 0.114196 -0.111345 -0.685187
v 0.362294 -0.111345 -0.519477
v 0.359135 -0.146374 -0.519477
v 0.300217 -0.111345 -0.519477
v 0.300217 -0.111345 -0.519477
v 0.136504 -0.146374 -0.713655
v 0.136504 -0.146374 -0.713655
v 0.114196 -0.146374 -0.685187
v 0.114196 -0.146374 -0.685187
v 0.136504 -0.111345 -0.713655
v 0.136504 -0.111345 -0.713655
v 0.300217 -0.146374 -0.519477
v 0.300217 -0.146374 -0.519477
v 0.114196 -0.111345 -0.685187
v 0.114196 -0.111345 -0.685187
v 0.300217 -0.111345 -0.519477
v 0.300217 -0.111345 -0.519477
v 0.362294 -0.111345 -0.519477
v 0.362294 -0.111345 -0.519477
v 0.359135 -0.146374 -0.519477
v 0.359135 -0.146374 -0.519477
vn -0.0000 -1.0000 -0.0000
vn -0.0000 1.0000 -0.0000
vn -0.0000 0.8382 0.5454
vn -0.0000 1.0000 0.0007
vn -0.7871 -0.0000 -0.6168
vn -0.6652 -0.0000 0.7467
vn -0.0000 -0.0000 1.0000
vn 0.6514 -0.0545 -0.7567
vn 0.6569 -0.0044 -0.7540
vn 0.6509 -0.0587 -0.7569
vn 0.6573 -0.0000 -0.7536
s 1
f 10//1 16//1 12//1
f 19//2 20//3 22//4
f 14//5 13//5 18//5
f 8//6 2//6 17//6
f 25//7 9//7 3//7
f 7//8 4//9 6//10
f 10//1 24//1 16//1
f 22//4 15//2 19//2
f 20//3 21//7 22//4
f 14//5 11//5 13//5
f 8//6 5//6 2//6
f 25//7 23//7 9//7
f 7//8 1//11 4//9
