# Blender 4.2.3 LTS
# www.blender.org
o DS_funnel_y_2_vis
v 0.136504 -0.146374 -0.713655
v 0.537660 -0.146374 -0.519477
v 0.151848 -0.146374 -0.746407
v 0.151848 -0.111345 -0.746407
v 0.136504 -0.111345 -0.713655
v 0.537660 -0.111345 -0.519477
v 0.362294 -0.111345 -0.519477
v 0.359135 -0.146374 -0.519477
v 0.136504 -0.146374 -0.713655
v 0.136504 -0.146374 -0.713655
v 0.151848 -0.146374 -0.746407
v 0.151848 -0.146374 -0.746407
v 0.136504 -0.111345 -0.713655
v 0.136504 -0.111345 -0.713655
v 0.151848 -0.111345 -0.746407
v 0.151848 -0.111345 -0.746407
v 0.537660 -0.146374 -0.519477
v 0.537660 -0.146374 -0.519477
v 0.359135 -0.146374 -0.519477
v 0.359135 -0.146374 -0.519477
v 0.362294 -0.111345 -0.519477
v 0.362294 -0.111345 -0.519477
v 0.537660 -0.111345 -0.519477
v 0.537660 -0.111345 -0.519477
vn -0.0000 -1.0000 -0.0000
vn -0.0000 1.0000 -0.0000
vn -0.9055 -0.0000 -0.4242
vn 0.5070 -0.0000 -0.8620
vn -0.0000 -0.0000 1.0000
vn -0.6514 0.0545 0.7567
vn -0.6569 0.0044 0.7540
vn -0.6573 -0.0000 0.7536
vn -0.6509 0.0587 0.7569
s 1
f 19//1 11//1 17//1
f 16//2 21//2 23//2
f 15//3 10//3 13//3
f 24//4 3//4 4//4
f 22//5 2//5 6//5
f 8//6 5//7 1//8
f 19//1 9//1 11//1
f 16//2 14//2 21//2
f 15//3 12//3 10//3
f 24//4 18//4 3//4
f 22//5 20//5 2//5
f 8//6 7//9 5//7
