# Blender 4.2.3 LTS
# www.blender.org
o DS_funnel_y_0_vis
v 0.108619 0.538700 -1.260073
v 0.143649 0.538700 -1.260073
v 0.108619 0.537139 -1.020073
v 0.143649 0.537139 -1.020073
v 0.143649 0.540009 -1.384487
v 0.108619 0.540009 -1.384487
v 0.143649 0.214213 -1.020073
v 0.108619 0.214213 -1.020073
v 0.108619 0.242901 -1.088290
v 0.143649 0.242901 -1.088290
v 0.108619 0.276866 -1.154040
v 0.143649 0.276866 -1.154040
v 0.108619 0.315899 -1.216914
v 0.143649 0.315899 -1.216914
v 0.108619 0.370894 -1.276522
v 0.143649 0.370894 -1.276522
v 0.108619 0.435557 -1.332496
v 0.143649 0.435557 -1.332496
vn -0.0000 -0.9218 -0.3877
vn -0.0000 -0.8885 -0.4590
vn -0.0000 -0.8496 -0.5274
vn -0.0000 -0.7350 -0.6781
vn -0.0000 -0.6545 -0.7561
vn -0.0000 -0.4456 -0.8952
vn -1.0000 -0.0000 -0.0000
vn 1.0000 -0.0000 -0.0000
vn -0.0000 1.0000 0.0065
vn -0.0000 0.9999 0.0105
vn -0.0000 -0.0000 1.0000
s 0
f 7//1 8//1 9//1
f 7//1 9//1 10//1
f 10//2 9//2 11//2
f 10//2 11//2 12//2
f 12//3 11//3 13//3
f 12//3 13//3 14//3
f 14//4 13//4 15//4
f 14//4 15//4 16//4
f 16//5 15//5 17//5
f 16//5 17//5 18//5
f 18//6 17//6 6//6
f 18//6 6//6 5//6
f 1//7 6//7 17//7
f 17//7 15//7 1//7
f 1//7 15//7 13//7
f 1//7 13//7 11//7
f 8//7 1//7 9//7
f 9//7 1//7 11//7
f 7//8 10//8 2//8
f 2//8 10//8 12//8
f 2//8 12//8 14//8
f 14//8 16//8 2//8
f 2//8 16//8 18//8
f 2//8 18//8 5//8
f 1//9 4//9 2//9
f 6//10 2//10 5//10
f 8//11 4//11 3//11
f 6//10 1//10 2//10
f 3//7 1//7 8//7
f 4//8 7//8 2//8
f 1//9 3//9 4//9
f 8//11 7//11 4//11
