# Blender 4.2.3 LTS
# www.blender.org
o ds_funnel_x_3
v 0.104532 0.541220 -1.319179
v 0.104210 0.576191 -1.319179
v 0.020420 0.576191 -1.383814
v 0.015848 0.576191 -1.373237
v 0.015848 0.541220 -1.373237
v 0.020420 0.541220 -1.383814
v 0.071180 0.541220 -1.319179
v 0.071008 0.576191 -1.319179
v 0.020420 0.576191 -1.383814
v 0.020420 0.576191 -1.383814
v 0.020420 0.541220 -1.383814
v 0.020420 0.541220 -1.383814
v 0.015848 0.576191 -1.373237
v 0.015848 0.576191 -1.373237
v 0.015848 0.541220 -1.373237
v 0.015848 0.541220 -1.373237
v 0.104532 0.541220 -1.319179
v 0.104532 0.541220 -1.319179
v 0.104210 0.576191 -1.319179
v 0.104210 0.576191 -1.319179
v 0.071180 0.541220 -1.319179
v 0.071180 0.541220 -1.319179
v 0.071008 0.576191 -1.319179
v 0.071008 0.576191 -1.319179
vn -0.0000 -0.0000 1.0000
vn -0.0000 -1.0000 -0.0000
vn -0.0000 1.0000 -0.0000
vn -0.9179 -0.0000 -0.3968
vn 0.6108 -0.0000 -0.7918
vn -0.6999 -0.0000 0.7142
vn 0.6093 0.0056 -0.7929
vn -0.6988 -0.0034 0.7153
s 0
f 20//1 21//1 18//1
f 12//2 22//2 16//2
f 24//3 10//3 14//3
f 15//4 9//4 11//4
f 2//5 6//5 3//5
f 5//6 8//6 4//6
f 20//1 23//1 21//1
f 12//2 17//2 22//2
f 24//3 19//3 10//3
f 15//4 13//4 9//4
f 2//7 1//7 6//7
f 5//8 7//8 8//8
