# Blender 4.2.3 LTS
# www.blender.org
o DS_funnel_y_5_vis
v 0.143649 0.059698 -0.520073
v 0.143649 0.085544 -0.663052
v 0.143649 0.189067 -0.520073
v 0.143649 0.053026 -0.647221
v 0.108619 0.059698 -0.520073
v 0.108619 0.179698 -0.520073
v 0.108619 0.085544 -0.663052
v 0.108619 0.053026 -0.647221
v 0.143649 0.059698 -0.520073
v 0.143649 0.059698 -0.520073
v 0.143649 0.053026 -0.647221
v 0.143649 0.053026 -0.647221
v 0.143649 0.085544 -0.663052
v 0.143649 0.085544 -0.663052
v 0.143649 0.189067 -0.520073
v 0.143649 0.189067 -0.520073
v 0.108619 0.085544 -0.663052
v 0.108619 0.085544 -0.663052
v 0.108619 0.059698 -0.520073
v 0.108619 0.059698 -0.520073
v 0.108619 0.053026 -0.647221
v 0.108619 0.053026 -0.647221
v 0.108619 0.179698 -0.520073
v 0.108619 0.179698 -0.520073
vn 1.0000 -0.0000 -0.0000
vn -1.0000 -0.0000 -0.0000
vn -0.0000 -0.4377 -0.8991
vn -0.0000 -0.9986 0.0524
vn -0.0000 -0.0000 1.0000
vn -0.1873 0.7987 -0.5718
vn -0.0278 0.8317 -0.5545
vn -0.0000 0.8352 -0.5500
vn -0.2117 0.7916 -0.5732
s 1
f 9//1 13//1 15//1
f 19//2 18//2 21//2
f 22//3 14//3 12//3
f 20//4 4//4 10//4
f 1//5 24//5 5//5
f 6//6 2//7 7//8
f 9//1 11//1 13//1
f 19//2 23//2 18//2
f 22//3 17//3 14//3
f 20//4 8//4 4//4
f 1//5 16//5 24//5
f 6//6 3//9 2//7
