# Blender 4.2.3 LTS
# www.blender.org
o ds_funnel_x_2
v 0.037827 0.541220 -1.319179
v 0.037806 0.576191 -1.319179
v 0.007017 0.576191 -1.365834
v 0.015848 0.576191 -1.373237
v 0.007017 0.541220 -1.365834
v 0.015848 0.541220 -1.373237
v 0.071180 0.541220 -1.319179
v 0.071008 0.576191 -1.319179
v 0.015848 0.576191 -1.373237
v 0.015848 0.576191 -1.373237
v 0.015848 0.541220 -1.373237
v 0.015848 0.541220 -1.373237
v 0.007017 0.541220 -1.365834
v 0.007017 0.541220 -1.365834
v 0.007017 0.576191 -1.365834
v 0.007017 0.576191 -1.365834
v 0.037827 0.541220 -1.319179
v 0.037827 0.541220 -1.319179
v 0.037806 0.576191 -1.319179
v 0.037806 0.576191 -1.319179
v 0.071180 0.541220 -1.319179
v 0.071180 0.541220 -1.319179
v 0.071008 0.576191 -1.319179
v 0.071008 0.576191 -1.319179
vn -0.0000 -1.0000 -0.0000
vn -0.8345 -0.0005 0.5511
vn 0.6999 -0.0000 -0.7142
vn -0.0000 -0.0000 1.0000
vn -0.0000 1.0000 -0.0000
vn -0.6424 -0.0000 -0.7664
vn -0.8346 -0.0000 0.5508
vn 0.6988 0.0034 -0.7153
s 0
f 12//1 17//1 13//1
f 19//2 14//2 18//2
f 24//3 11//3 9//3
f 1//4 23//4 20//4
f 2//5 10//5 15//5
f 5//6 4//6 6//6
f 12//1 21//1 17//1
f 19//7 16//7 14//7
f 24//8 22//8 11//8
f 1//4 7//4 23//4
f 2//5 8//5 10//5
f 5//6 3//6 4//6
