# Blender 4.2.3 LTS
# www.blender.org
o DS_lock.002
v -0.371348 -0.595773 -1.407429
v -0.371348 -0.595773 -1.392428
v -0.071348 -0.595773 -1.407428
v -0.071348 -0.595773 -1.392428
v -0.371348 -0.610222 -1.407429
v -0.071348 -0.610222 -1.407428
v -0.371348 -0.610222 -1.392428
v -0.071348 -0.610222 -1.392428
vn -0.0000 1.0000 -0.0000
vn -0.0000 -0.0000 -1.0000
vn -0.0000 -1.0000 -0.0000
vn -0.0000 -0.0000 1.0000
vn -1.0000 -0.0000 -0.0000
vn 1.0000 -0.0000 -0.0000
s 0
f 1//1 2//1 3//1
f 3//1 2//1 4//1
f 5//2 1//2 6//2
f 6//2 1//2 3//2
f 7//3 5//3 8//3
f 8//3 5//3 6//3
f 2//4 7//4 4//4
f 4//4 7//4 8//4
f 5//5 7//5 1//5
f 1//5 7//5 2//5
f 8//6 6//6 4//6
f 4//6 6//6 3//6
